<?xml version="1.0" encoding="UTF-8" standalone="no"?>
<!-- Generator: Adobe Illustrator 19.1.0, SVG Export Plug-In . SVG Version: 6.00 Build 0)  -->

<svg
   xmlns:dc="http://purl.org/dc/elements/1.1/"
   xmlns:cc="http://creativecommons.org/ns#"
   xmlns:rdf="http://www.w3.org/1999/02/22-rdf-syntax-ns#"
   xmlns:svg="http://www.w3.org/2000/svg"
   xmlns="http://www.w3.org/2000/svg"
   xmlns:sodipodi="http://sodipodi.sourceforge.net/DTD/sodipodi-0.dtd"
   xmlns:inkscape="http://www.inkscape.org/namespaces/inkscape"
   version="1.1"
   id="Capa_1"
   x="0px"
   y="0px"
   viewBox="0 0 664.371 664.371"
   style="enable-background:new 0 0 664.371 664.371;"
   xml:space="preserve"
   sodipodi:docname="school-under-construction.svg"
   inkscape:version="0.92.5 (2060ec1f9f, 2020-04-08)"><metadata
   id="metadata51"><rdf:RDF><cc:Work
       rdf:about=""><dc:format>image/svg+xml</dc:format><dc:type
         rdf:resource="http://purl.org/dc/dcmitype/StillImage" /></cc:Work></rdf:RDF></metadata><defs
   id="defs49" /><sodipodi:namedview
   pagecolor="#ffffff"
   bordercolor="#666666"
   borderopacity="1"
   objecttolerance="10"
   gridtolerance="10"
   guidetolerance="10"
   inkscape:pageopacity="0"
   inkscape:pageshadow="2"
   inkscape:window-width="1188"
   inkscape:window-height="803"
   id="namedview47"
   showgrid="false"
   inkscape:zoom="0.71044645"
   inkscape:cx="333.58422"
   inkscape:cy="425.2844"
   inkscape:window-x="72"
   inkscape:window-y="27"
   inkscape:window-maximized="0"
   inkscape:current-layer="g10" />
<g
   id="g14">
	<g
   id="g12">
		<g
   id="g10">
			<g
   id="g8">
				<path
   style="fill:#014ee3;fill-opacity:1"
   d="M332.195,0C216.595,0,122.889,93.676,122.889,209.287s209.306,455.084,209.306,455.084      s209.287-339.494,209.287-455.084C541.482,93.676,447.796,0,332.195,0z M332.195,371.208c-89.299,0-161.94-72.651-161.94-161.94      s72.641-161.931,161.94-161.931c89.28,0,161.931,72.651,161.931,161.931C494.126,298.566,421.475,371.208,332.195,371.208z"
   id="path2" />
				
				
			<ellipse
   style="fill:#ffffff;fill-opacity:1;stroke-width:0.87185651"
   id="path4539"
   cx="332.1243"
   cy="209.28008"
   rx="161.94945"
   ry="161.9464" /></g>
		<path
   style="fill:#000000;fill-opacity:1;stroke-width:0.02078309"
   inkscape:connector-curvature="0"
   d="m 352.77534,77.347028 c -2.55452,0.18413 -6.05916,0.5524 -7.81148,0.79791 -1.03451,0.16367 -2.32232,0.3478 -2.85012,0.40918 -1.87902,0.28643 -6.29147,1.16618 -9.2894,1.86178 -2.93463,0.69562 -8.25488,2.10729 -8.40268,2.23005 -0.0422,0.0409 0.2745,0.16367 0.69671,0.28642 0.61231,0.16368 1.09791,0.12276 2.38572,-0.2455 1.41452,-0.36827 2.19562,-0.42964 6.05916,-0.42964 4.81365,0 6.37597,0.18413 10.83061,1.32984 4.56024,1.16617 8.42378,2.59831 12.92062,4.76697 16.84757,8.2041 27.53027,20.725082 26.96027,31.629782 -0.1478,2.59831 -0.57001,4.27596 -1.62562,6.44463 -1.26671,2.61876 -1.37231,3.02794 -1.37231,5.83085 0.0211,2.9461 0.46451,4.70559 1.73122,6.93563 l 0.7389,1.30939 -29.02928,28.13128 -29.02918,28.13128 -0.59121,-0.40918 c -1.92122,-1.30939 -4.72915,-2.04591 -7.07257,-1.82086 -1.66782,0.14321 -3.80014,0.75698 -4.87695,1.39122 -0.4222,0.26596 -3.71574,3.19161 -7.28367,6.50599 -63.69542,59.22913 -91.18349,84.86437 -91.92251,85.76457 -0.4856,0.5933 -1.22451,1.78 -1.64671,2.6188 -0.69671,1.4526 -0.73891,1.6367 -0.73891,3.6826 0,1.9437 0.0633,2.2915 0.63331,3.5804 0.90791,2.0459 2.00572,3.5189 4.87695,6.5469 4.26464,4.4601 18.45208,17.9836 19.80319,18.8633 6.56597,4.276 13.23743,4.4192 17.81878,0.3683 1.60451,-1.4117 91.56349,-93.31405 92.30251,-94.29609 1.94231,-2.55738 2.30122,-7.22206 0.8022,-10.35231 -0.3589,-0.73652 -0.82341,-1.51397 -1.03451,-1.73902 -0.4011,-0.42964 -0.2533,-0.57285 28.79709,-28.72459 l 29.19808,-28.29496 1.28792,0.98205 c 4.81354,3.76447 9.52159,4.78742 15.83415,3.47804 4.20134,-0.87974 6.22806,-0.69561 9.43709,0.7979 2.02682,0.94112 4.15914,2.5574 6.33366,4.82835 1.41452,1.47307 7.24147,8.4087 7.38928,8.81788 0.0633,0.14322 -0.73891,1.08434 -1.79452,2.08684 -2.95573,2.82335 -3.96914,5.19661 -3.73684,8.73603 0.54891,8.42916 10.1972,14.13725 17.73417,10.49553 0.86561,-0.40919 3.39914,-2.76198 11.82282,-10.88425 9.6272,-9.30889 10.78841,-10.51598 11.44281,-11.74352 2.25903,-4.37826 1.14012,-9.65671 -2.82902,-13.4621 -3.84234,-3.66219 -9.41599,-4.6033 -13.82844,-2.29143 l -1.03451,0.5524 -0.82341,-0.92066 c -1.62561,-1.77994 -4.72915,-5.93315 -5.72135,-7.65171 -0.57001,-0.96158 -1.60452,-2.96657 -2.30122,-4.46009 -2.17463,-4.72605 -4.32805,-8.79741 -5.61586,-10.74103 -2.89233,-4.2555 -6.35476,-8.38824 -10.91501,-12.95062 -12.01281,-12.02996 -32.02721,-31.670702 -33.54733,-32.939172 -10.6194,-8.83834 -21.91441,-13.64623 -36.31296,-15.46709 -2.42782,-0.30689 -12.30831,-0.5524 -14.79964,-0.36827 z"
   id="path4" /></g>
	</g>
</g>
<g
   id="g16">
</g>
<g
   id="g18">
</g>
<g
   id="g20">
</g>
<g
   id="g22">
</g>
<g
   id="g24">
</g>
<g
   id="g26">
</g>
<g
   id="g28">
</g>
<g
   id="g30">
</g>
<g
   id="g32">
</g>
<g
   id="g34">
</g>
<g
   id="g36">
</g>
<g
   id="g38">
</g>
<g
   id="g40">
</g>
<g
   id="g42">
</g>
<g
   id="g44">
</g>
</svg>